<svg xmlns="http://www.w3.org/2000/svg" viewBox="0 0 1200 1200">
  <path fill="#789c7c" fill-rule="evenodd" d="m1064 50-1 2v1h3l1 1h-5q-4 0-3 1 2 1-1 1l-2-1h-4v6l-1 6q-2 4 1 0 2-1 1-3 0-3 1-1v3l1 2v4h1l3 1c3-1 7 1 4 2v2l-1 2-1-3q2-3-1-3l-1 1-1 1-2 1q0 4 2 4l-1-2v-1l3 2 3 1 1 1-2 1-2 1q-2 1 4 1l4-1h5l3 1 2-1 2-1 2-2h-1l-1-1-3-5q-3-4-2-6l1-3q1-1-1-1-4 1-3-3l1-2 1-1h-2l-2-1q-1-2-3-1v-3l-2-3-1-1zm-53 25q-1 4 3 2h1q0 2 3 1 8-1 5-6h-2l1 1q2 1-1 1l-3-1-2-1v1l-1 1-1-1-1-1q-2-1-2 3m15 1q0 3-1 1t-1 1q1 3-5 2c-12 0-13 0-13 2q0 3 1 1 1-1 1 3l2 5 1 3 1 2 1-2q0-7 2-5v3q-1-1-1 2 0 2 1 1v5q5 4 5-1 0-3 2-3 3 0 2-3l2-7 1-5v-6q-3-2-1 1m46 5 1 1h3l2-1-3-1zm-44 13q0 4 2 4l2 1q2 3 5-1 0-3 2 0v-1l-2-1-3-3-4-3q-2-1-2 4m-61 2v5q0 4-4 1-3 0-1 1l2 3q0 2 3 2l4 2 3 2c3 0 3 8 0 10l-1 1 1-2-2-1-3 1h2l1 6 2-1q3-3 1 0l-3 3q-2 1 1 1l3-1 8-1q8 1 9-2l2-2 1-1q0-2-2-1t-2-2l-1-3q-2 0-2-3t1 1l3 3-1-3q-2-5-4-3l-2 1v-8h-1q0 2-2 1l-1-2q1-2-1-2v-1l-1-1-2-1q-3-2-2 2l1 1h1l-1 2q-2 3-3 1c-2-2-3-7-1-7l1-1c0-1-6-2-7-1m57 4 2 2 4 3-4 1-3-1-1-1q-3 0-2 2 1 3 1 1h1v2q-3 3 0 3l2-2q-1-2 3-2l3-1 3-1q4-1 2-2l-2-1c2 0-2-3-3-3l-2-1-2-1zm-48 10 2 2 2-2-2-2zm-9 3q0 4-2 4v1h5q3 1 2-3 1-4-3-3-4 0-2 1m-43 10v2q-3 2-1 2 1 1-1 1-3-1-2 3l1 3 1 2 2 3-1 1-2-2-1-1v1l1 1v2l2 1 3 2v1l1 3 1-1q-1-1 1-1l3-1 3-1 3 1-2 1-2 1 3 1 3-1 4-1q5 0 4 2v1l3-1q2 0 1-1l-2-2h-3l-1-4-2-5q0-8-1-4v3l-1 1v-8h-1l-1 1-1 3q1 4-1 4-3 0-2-3l1-8q-1 3-2-1l-3-2v2q2 1-1 1-3-2-1 1v2l-2-2-2-2zm53 9q-2 3 2 1l3-1 2-1c0-2-5-1-7 1m-33 17-2 1-2 1 3 1q3 1 3-2l-1-2zm-16 3q-1 2 1 2v-1l1-1 2-1-2-1zm4 1q-2 3 3 3 3 1 3-2 0-2-3-2zM201 868l3 1h-3l-4 1h-2l2-1v-1q-5 0-5 4 0 3-1 1-1-3-5 0-3 3-2 4l1-1v-1l2-2h3l1 3h-3q-4 1 0 2v1l-4-1h-1l1 3h-2q0-3-4 0-5 4-1 3h2l-1 2-1 1-1 1v2h-2l-1 2v1l-2-2-1-1q-1 3 1 5h-5l1 1v4l1 4q-3 1-5-3h2q1 3 1 0l-1-3c-4-3-7 16-3 21q1 2 1-1v-2l1 2 1 2 1-3v-3l1 3q0 3 2 3l1 4-1 4 2 4 4 2h1q-2 2 3 5l4 3v1l1 3 1-1q-1-1 1-1l2 1-1 1-1 1h2q4-1 1 2h3v2q2 3-1 1l4 4q6 7 7 5l2-1-1 2-1 1 2-1q3-2 1 2-2 3 1 1t1 1v2l3 1v1h-2l7 6q4-1 6 3l2 3 1 2h-1l-1 1h3l1 1 2 1v-3l4 5-1-1-1-1q-3 0 4 7 7 6 4 6l-1-1-11-11 7 8q7 8 9 6 3 0 1 1h3l2-1h-6l-2-1v-2c0-2 15-1 17 1v1l2 2 3 1h-6 6q3-1-1-2-3-1 0-1h6q2-1 0 0l-2-1v-1h-1l1-2 2-2q1-4 5-3 7 0 6-5l1-3 2-3 3-4q2 0-1 2-3 3 0 5v-1q-2-1 2-1l1-1v-1l2-1v-2l1-1q2 0 3-8l1-8-1-4v2q0 3-1 1h-1v-2q0-4-1-2t-1-1l1-3q1 1 0 0 0-2-3-1-2 1-3-3-3-4-5-3l-2-1-1-3-3-4-2-3q-5-1-2 2v1l-1-1h-2l-1-2 1-3h1c0-2-6-7-8-7l4 4q3 1 0 1l-4-2v-5h-2l-2-2-4-1v-2l2 1h4l-2-1q-3 0-3-2 0-3 1-1 0 2 3 2 3 2 2 3 2-1-1-4-4-5-6-2h-3v-1q3-1-1-2l-3-3-1-2q-3 0 1 5 4 4-1 2-2-1-2-7v-4l3 3 3 2-9-9q-2 1 1 4v1q-4-1-3-4l-4-5q-3 1 1 3 3 0 0 1-7-1-8-9v-4l3 3q5 3 0-1l-11-11 2 3 3 3h-2l-2-1c1-2-4-5-6-5q-3 0-3-2l-2-2-1-1q0-2-5-2zm-9 11q-1 1 7 1l9-1-8-1zm-13 3 1 1 1 2-1 1-1 1 2-1q4-2 1-4zm-14 39h1q-1 3-3 0h-1l3 4h1q1 1 1-2-1-5-3-3m101 5 2 4 5 3zl-2-2zm-71 27 1 2h2v-2zm18 17-1 1v2q3 4 3 1 1-4-2-5z"/>
  <path fill="#ffebed" fill-rule="evenodd" d="M1094 75h13c11 0 13 1 18 3l9 6 9 11 1 5c2 6 1 16-2 21-5 8-6 9-11 9l-7 1h4c9 0 9 0 12-4l3-3h1q-1-2 1-6c1-5 2-22 0-22l-1-1-3-5-3-4c0-1-3-5-4-4l-4-3-7-4c-5-1-30-2-29 0m18 59-10 4q-11 6-26 27c-8 10-8 11-7 11h1l2-3 2-2 2-3 2-3 1-1 1-1q1-5 4-5l1-1 4-6 5-6 1-1 4-2c3-3 9-5 10-4l1-1 2-1 2-1 4-1 3-1q-1-2-9 1m-144 3 2 2-3 1q-4 0-3 1 2 1-1 2l5-2q5-2 5-4h-1l-1 2-1-1v-2q-2-2-2 1m-39 23h-2l-2 2-3 2q-2 0-1 3h2q1-3 6-6 5-4 0-1m-10 12-3 5-1 1-1 4-1 4-1 2 4-7 1-1 1-3v-1l4-7zm148 6-1 2q1 1 0 0l-3 3-2 3-2 3-1 3 2-3 4-5c1-3 6-4 5-1q-1 1 0 0 3-1 0-3zv-1zm-161 21-2 3-1 2c1 1-2 5-3 4l-1 1q0 3-4 3v1c1 1-3 5-5 4q-3 0-1 1l-2 4q-3 3 0 1c11-9 23-24 20-26zm145 3-2 4 1-1h2q-1-5 1-3l1-1v-3zm-173 23v5l-1 1h-1q1 1-2 3-2 3 3-2 8-7 4-7v2q-1 1-1-2zm-13 16v1l-2 3-4 2v-1l-1-1v3q0 3-3 3l-1 2q-1 3 6-4l7-9zm160 2q-2 4 1 3l2-3q0-6-3 0m-43 6q-10 1 3 1l10-1zm-26 2-4 1h5l11-1 5-1h-6zm-108 3 1 1-1 2q-3 1-2 4l-3-2-2-2 2 2q3 5-1 2-1-1 0 0v2l-1 1-2 3h-1v-2h-3q-2-1-2 1l1 3-1 2v1h2l7-6 6-8 2-2q3-2 1-2zm91 6-2 4 1-1 1-1v1h1l2-3 1-2 1-1zm-17 18q-4 5-2 4l2-2h1l1-1q0-3 3-4h1v-2zm-97 1-6 5-1 1q-1 3 5-2l4-5zm84 14-7 8-1 1-17 17 1 2v-1q-2 0 1-2 2-3 2-1h1l1-2q-2-1 1-1l2-2 1-1 1-1c0-2 6-7 7-7h1v-2l3-4 4-3 1-1 1-1 1-1v-2h2v-1l1-1q4 1 2-2-2 0-9 8m-105 6v1l-4 4-3 3 5-3 3-5zm-19 19q-1 3-4 2v1l-1 2q-3 0-2 2 0 2 5-4 6-5 3-5-2 0-1 2m87 14-5 6 2-1c0-1 8-10 9-9l2-1v-2q-2 0-8 7m-11 13c-3 1-13 11-12 11v1q-2 3 3 1l-1-1v-3l3 4q-2 1 0 0l1-2q-1-2 1-4l2-4h1l2 2v2l1-1q3-2 0-3l-2-1v-1l3-1zm-109 4-1 1h-1l-2 1-1 3-3 3h-1l-1 2q0 2 5-4zm84 20-4 6 1 1 1-2 6-6 1-3zm-119 12q2 1-1 1l-1 1-1 2-1 1-2 3-5 5 5-5q11-10 6-9zm101 8-6 6 4-3q3-3 4-2 1 2 0 0v-2l4-5zm-122 13-1 1q-2-1-3 1h-2v1q2 3 0 3l-2 1-3 1-1 1h1q1-2 1 1-1 3 6-4 5-6 4-7zm104 5-4 5q3-2 3 1-1 1 0 0l1-2 1-3q2-3 3-1h1q-1-3 1-4l1-2zm-126 14v2l-1 1h-1q0 3-5 4l-2 2q-1 2 0 0 3-2 2 1l3-2q8-8 5-9zm105 8q-7 9-2 4l2-2 4-4h1l-1-2zm-122 10q-3 4-4 2l-1-1q1 2-1 3l-1 3h-1l-1 1-1 2q-3 2-1 2l8-7 6-7zm108 6-5 5 4-3 4-3 1-1 1-2q3-6-5 4m-128 14-3 1q-1-1 0 0-2 4-5 4l-1 1v3l5-4 6-7zm-242 16v4h1l1 1 1-1c3-2 4-6 1-4v2l-1 1-1-1v-3q-2-1-2 1m216 9-3 3 9-9zm117 0-2 2 3-1 1-1q-1-2 2-2 4 1 2-2-1-2-6 4m-127 8h-1l-1 1c1 1-3 5-4 4l-1 1q1 1-2 3l-2 2 7-6 6-6zm-223 5-2 3-1 3h1l1-3c0-1 3-5 4-4l1-1c2-2-2-1-4 2m332 6-3 3 3-1zl1-1v-1l1-1q4 0 4-3t-7 5m-17 18q-5 4-2 3v2l1-1q3-1 2-3 0-3 1-1l1-1q0-2 4-2v-1q-1-3-7 4m-125 3h-3v1l-2 3-3 2h-2v3l-2-3v-1l-2 2-1 1q3 0 4 2h-3v2q2 0-1 2l-1 1 9-8 8-8zm110 13-9 10v3l1-1 1-3 2-3q3-3 2 0h1l1-1q0-2 2-2v-4l3-1q1 1 3-2l2-3zm-132 5q-2 3-3 2v1q2 2-1 3c-1 2-5 3-4 1v-2l-1 1v1l-1 3v3l5-5q7-6 6-7l1-2zm111 17q-6 5-6 7h3q2 1 0 0-2-2 4-7l5-6zm-130 2-3 3-3 4-3 3q-2 3-2 1 1-4-1 0-2 2 1 2c2-1 14-14 12-14zm112 16-6 8q-1 2 0 0h2v2l1-1 1-2v-3q2-3 2-1h1q0-4 3-4h1q-1-4 2-2 2 1 0 0l-1-2zm-135 5q1 2-2 4-4 4-4 1v-2l-2 2 1 2q3 0 1 1l-1 1q1 1 5-4 6-5 3-5zm125 8h-1l-5 5-6 6 2-1q1-3 3-1l1 1v-4h1l1-1 2-1v-1q-2-1 1-1l3-3zm-23 22-4 5h3v-3l8-8zm-165 11-22 5h-2l-1 1-9 3-1 1h-3q-7 2-5 3l-1 1q-4-1-6 2l-1 1h-1l-1 1c-1-1-6 2-5 4h-4l-2 1-1 1-1 1h-1l-2 1-1 1-3 2-2 1-2 2-3 2v1h-1l-3 2-2 2-4 2-4 3-3 2-4 4-1 2-1 1-1 1-1 1c-1-1-6 3-6 4l-1 1-2 3-1 1q-3 0-3 3l-1 1q-2-1-2 3l-2 1-3 2-1 1-4 3-2 3-2 3-2 3-3 3-4 5v2l-3 1q-3 1 0 3v1q-1-3-6 3l-1 2-2 3q-3 2-2 5h-1q0-2-2 1l-2 3-2 3-2 4-1 1-2 3-1 3-1 2-2 2-1 3-4 19v1c-2-1 0 22 2 27l2 5 1 2v1l1 1 1 1q0 3 1 2l1 1v2l1 1c-1 1 8 13 9 12l1 1 1 1 1 1q0 2 2 2l2 2q1 4 3 3l2 1-1 1 5 6 6 5 1 1c-1 1 14 16 15 15l1 1c-1 1 14 16 15 15l1 1c-1 1 6 8 7 7l1 1c-1 1 6 8 7 7l1 1c-1 1 6 8 7 7l1 1q-1 2 2 4l1 3 1 1q2 1 1 3h1l1 1v2l1 13q0 7-2 13l-2 7-1 1-4 5q-5 7-4 8v1l-3 1q-4 2-2 4v1c-1-1-11 8-10 9v1q-4 0-3 2l-1 1-6 5-3 3q2-2-3 1l-4 5-1 1c-1 0-5 4-4 5l-1 1c-1 0-7 5-6 6l-1 1-3 1v1l-2 3-3 4v1c-2 1-2 8-1 11l1 3q2 3 3 2l1 1q-1 3 3 4l3 2q3 3 18 3c9-1 21-3 21-5l1-1a68 68 0 0 0 21-10l8-8v-1 1q0 3 2 1l2-2c1 0 8-8 7-9h1c1 1 5-2 4-3l1-1c1 1 6-5 6-7l3-3q2-2 1-4l1-1h1v-2l4-5 1-2 1-3 1-1 1-1v-1c1 0 4-7 4-10l1-1 4-10 1-1c1-1 3-6 2-7l1-1c1 0 6-14 5-15h1l1-1v-2l6-18 1-1q2 0 2-7l1-2 1-2v-1l1-1 2-5 1-5 1-1h1l2-4v-2l2-2 2-2 1-2 1-3 1-1 1-1 1-2q1 1 3-2l2-2 3-4 4-3 1-1 1-3v1l4-2 7-6 4-3 1-1 3-2 2-2v-1c1 1 7-2 7-3l1-1 2-1 1-1 12-6h1l1-1 1-1q3 1 5-2l1-1c1 1 7-2 7-3h1l1-1 1-1c1 1 11-4 11-5h1l1-1h2l1-1v-1c1 1 11-4 12-6h2l1-1 1-1c1 1 10-4 9-5h1l4-2 2-1 5-3 4-4 1-1q3 1 2-3h2l1-1 5-3 2-4q-1 1 0 0l2-3 1-1 3-3 2-4q-1 2 0 0l1-1 1-2q2-1 0 0v-1c2-2 4-8 3-9l-1 1-1 1h-2l-1 2-3 1q-3 0-3 2l-1 1c-1-1-7 2-7 3l-1 1c-1-1-8 2-8 3l-1 1h-3l-1 1-2 1-9 1c-9 3-23 2-31 0l-8-1-1-1-2-1h-2q-2-4-5-3l-1-1c0-1-7-6-8-5l-1-1-1-2-3-3h-2l-1-1q1-1-2-3-3-3-1 0v1l-1-2-8-11-1-1-1-5-4-8-1-4-3 2-1 3-1 1-6 5-7 6-35-35-34-39q-1-2 0 0 1 1 4-2l3-3v-1l18-17 1-1 2-1c1 0 11-9 10-10l1-1 1-1 1-1c1 1 7-5 6-6l1-1 1-1 1-1 3-1q4-2 2-3c-2-1-16-2-21-1m148 8-6 6q2-2 3 1 2 2 0 0-1-2 3-7l5-4h1l1-2 1-2zm-10 11v1l-2 1-12 13 1 1 1-2v-2l1 1q2 2 3-1l3-1 1-1h-3l-1-1 3-1 2-1 1-1 1-1 1-3q3-2 1-3zm-19 20v2l-7 5q-7 6-4 6 2 0 1-2l1-1h1c-1-1 9-9 10-8v-1zm-26 26-4 6 2-2q2-3 3-2l1-1q-1-3 5-5v-1zm-14 16q-5 5-3 5l1-1zq2-3 3-2l2-1q3-6-5 2m-165 7-8 4-2 1h-1l-2 2-2 4c-3 4-4 6-3 15q1 13 7 19l1 2 1 1c1-1 7 5 6 6l1 1q1-1 3 2l1 2 1 2q5 5 2 1l2 2q5 3 3 5l1 1c1 0 7 5 6 6l1 1q3-1 2 3h1c1-1 8 3 8 4h7l12-1c-1-1 4-3 6-3v-1q0-3 2-2l1-1v-2c3-3 5-13 4-18v-6l-1-1-4-8-1-1-1-1-1-1-4-3-12-13q1-1 0 0-3-1-4-5l-1-1v-1l-1-1q-3 0-3-3l-1-1-4-3-2-2q2 2 3-1 2-1 0 0h-2l-2-1-5-1q-9-4-15-2m-237 19v4h-3q-3-2-1 1 2 1-3 6l4-3 7-8zm491 9v4h2l1-1h1l-1-2zm-271 55h-5l-1-1v2l-1 3h-2l-5 9c-3 5-3 16-1 21q2 2 1 4l1 1 1 1 4 3 3 4q0 2 2 2c1 0 7 7 6 8l1 1 10 9 4 5 3 4 1 1 1 1 1 1h1l1 1h1l3 2 4 1c3 1 15-1 18-3h1l2-2q8-9 9-20v-6l-1-2v-3l-1-1v-2l-1-1-2-2-2-2v-1l-1-1-1-1-1-1-6-5q-6-7-4-7 2-2 0 0-1 2-4-1l-1-3-1-1c-1 1-6-5-5-7h-1c-1 1-8-5-8-7l-2-2-2-1-1-1-5-1q-8-2-14 1M156 983v2l1 1q3 0 1 1v1q4 0 3 2l1 1 1 1 2 1-4-6zm21 24v5q-1 4 3 3h2l1-1h-3l-2-2v-4l5 3q4 5 3 6-2 3 1 1 5-1 3 3-2 0 1 2h1q0-3 2-1v4h4v4h2q2-1-10-13-13-12-13-10m238 56-6 6 3-2 3-2 1-1 3-4 3-3z"/>
  <path fill="#478740" fill-rule="evenodd" d="M450 451q-36 8-70 47-20 24-44 70c-23 43-32 57-46 72-18 17-32 25-72 39a216 216 0 0 0-115 74q-49 63-11 140 13 29 40 61c17 21 68 74 87 91q71 60 126 54 37-4 69-36a232 232 0 0 0 62-110l7-25c9-22 26-37 93-82 38-26 45-32 56-46q28-37 10-59-6-9-17-4l-18 9c-21 12-30 15-43 15-24 0-48-22-49-47l-2-4-1 2-2 2q-4 1-4 4l-2 2-2 2q0 4-4 4-2 0-2 4l-1 3c-1-1 2 8 6 14q8 12 21 23l6 5 7 4c25 12 48 8 82-11l8-4-1 5q-8 20-32 37c-11 8-18 11-45 25l-57 32-1 1a114 114 0 0 0-48 70 422 422 0 0 1-42 90l-4 3a170 170 0 0 1-33 26c-12 6-28 11-38 11q-21-1-27-17-2-4 1-10 3-8 20-23c39-38 49-51 49-70 0-8 0-9-3-15s-6-10-23-27l-71-76-6-13c-2-8-2-10-2-23-1-21 2-28 15-48a357 357 0 0 1 103-98l4-3 2-1 9-4q12-6 31-11c9-2 28-4 34-2q3 2 8-4l6-5 1-1 1-1 4-4 1-1h1q2-2-7-4-16-2-24-23c-4-8-3-24 0-34 5-15 13-27 28-47l11-15q12-18-8-29-14-7-32-4m-95 261q-12 4-16 13c-3 6-3 16 0 22 3 5 36 41 41 45 4 2 5 3 12 3s8-1 13-4q11-8 11-21c0-10-4-15-33-45q-13-13-14-11l-1-1c-1-1-10-2-13-1m-17 82-2 1-1 1c-1-1-9 7-11 11l-2 11c0 8 3 13 15 27 28 30 30 31 41 31q6 1 11-3c13-8 16-23 8-35l-11-13-10-11-20-19q-7-3-18-1m-148 75c-6 4-26 25-29 32q-4 10 1 21c3 5 4 5 38 41 37 38 38 40 42 41q8 4 18 2c4-1 6-3 16-13 15-14 17-18 18-26 1-12-1-15-16-30l-66-68-10-2c-6 0-7 0-12 2"/>
  <path fill="#956c61" fill-rule="evenodd" d="m890 220-12 12a8674 8674 0 0 0-205 194L456 631l-33 32-17 16 35 35 36 35 8-9q10-10 10-8 1 2 1-2t2-4q4 0 4-4l2-2 2-2q1-4 4-4l2-2 2-2 1-1 2-3 28-30 18-19 114-120 181-191 23-26q1 1 5-4l50-52 11-12-22-21-22-22zM331 891l-10-10z"/>
  <path fill="#ffa827" fill-rule="evenodd" d="M1100 76c-9 2-22 8-22 9l-2 1-2 1-2 1-2 1-2 1-2 1-25 12q1 1-1 1l-2 1-2 2-102 51-9 5-7 14-7 15-7 15s9 11 22 23l22 22h4l42-4 21-2h9l2-4 8-13 14-23 9-14 2-3 2-3 1-2 2-3 5-6q20-30 33-37c10-4 23-8 29-8 5 0 6-1 11-9q3-4 3-13c0-8-1-10-3-14q-7-11-17-16l-14-3z"/>
  <path fill="#798f9a" fill-rule="evenodd" d="M1055 50q-11 6-2 22l4 6 1 1 2 5q1 4 4 4l2 1-2 1v1h2l2-1q4-1 1-2v-2q3-4 3 0l1 2 1-1 2-1 2-1 3-2 4-2c0-1-5-10-6-9l-1-1c1-1-1-6-2-6l-1 3q-2 2 4 8l1 3 1 1h1l-2 2-2-1-3-1-3 1 3 1 3 1h-5l-3-1-2 1-4 1-4-1 1-1 3-1-1-1-3-1-3-2-1-1 2-1 1-1 1-1q3 0 1 3l1 3 1-2v-2c3-1-1-3-4-2l-3-1h-1v-4l-1-2v-3h-1q1 4-1 5V55h4l2 1q3 0 1-1t2-1q9 0 5-1h-3v-1c4-3-3-4-8-2m10 1 2 2v3c2-1 6 4 5 6q0 3 2 2 3 1 1-2l-8-11zm-52 20-5 4q-4 3-3 8l3 8 2 4 4 7 7 12 8-4 8-4 1-1 2-1q3 2-1-6l-9-15-1-3q-1-4-2-2v3l-1 5-2 7q1 3-2 3-2 0-2 3 0 5-5 1v-5q-1 1-1-1 0-3 1-2v-3q-2-2-2 5l-1 2-1-2-1-3-2-5q0-4-1-3-1 2-1-1c0-2 1-2 13-2q6 1 5-2 0-3 1-1h1l-1-3-2 1c-1 3-9 5-8 2h-1q-4 2-2-2 1-5 2-2l1 1 1-1v-1l2 1 3 1h2l-2-2q-3-3-8-1m15 23q0 4 2 4l2 1 2 1q4-1 2-4l-2-3-4-3q-2-1-2 4m-57 2q5 1 2 2c-2 0-1 5 1 7q1 2 3-1l1-2h-1l-1-1v-3l2 2 4 2v2l1 2 3 6h1q3-1 2 2 0 3 2 3l1 3 2 2q3 0-1-3l-4-7-3-5-1-2-4-6q-3-5-8-4-5 0-2 1m-7 3-1 3-1 1v1l1 1-1 1v5l1 1 1 3q1 4 3 2v-4q-2-1 2-1 4-1 3 3 1 4-2 3h-3c-1 2 4 11 5 11l1 1 1 4q1 3 4 2l2-1 2-1 2-1 2-1 2-1 2-1 2-1 2-1q2 0 3-4-1-1-4 2-1 3-9 2l-8 1-2 1q-2-1 1-4l1-2-2 2-2 1-1-6h-2l3-1 2 1-1 2 1-1 2-6q0-4 2-4l2-2-2-2-2 2q-1 5-5 0l-4-2q-3 0-3-3-1-2 1-2t3-4q0-4-4 0m60 1 2 2 4 3-4 1-3-1-1-1q-3 0-2 2 1 3 1 1h1v2q-3 3 0 3l2-2q-1-2 3-2l3-1 3-1q4-1 2-2l-2-1c2 0-2-3-3-3l-2-1-2-1zm-97 20q-5 0-8 7-2 5 2 12l4 6q0 3 2 3l1 1v2h1l2-2 2 1-2 1-1 1v4c2 3 2 3 12-2q6-2 2-3-5-1-1-2l2-1 1-1 1 2q-1 3 4 0 4-1 1-2l-3 1v-1q1-2-4-2l-4 1-3 1-3-1 2-1 2-1-3-1-3 1-3 1q-2 0-1 1l-1 1-1-2v-1l-6-8 1 1 2 2 1-1-2-3-1-2-1-3q-1-4 2-3 3 0 1-1t1-1v-3h1l1 1 2 2 2 2v-2q-2-3 1-1 3 0 1-1v-2l3 2q1 4 2 1l-1 8q0 3 2 3t1-4q-1-5 2-2v3l1 2v-1h1l1 3 2 4 1 3 1 2h3c1-1-3-5-3-4l-1-1q1-2-1-5l-5-8q-2-4-6-7-7-3-8-1m50 12q-2 3 2 1l3-1 2-1c0-2-5-1-7 1m-45 21q-2 3 3 3 3 1 3-2 0-2-3-2zM321 690l-9 10zM197 868l2 1h-2q-2 1 1 1l6-2 2 1v1l2 2q0 2 3 2c2 0 7 3 6 5l3 1h3l-4-5c-6-6-9-7-17-7zm-9 3c-5 3-13 11-12 11l3-2q2-2 3 1h2l-1-3h1l4 1v-1q-4-1 0-2h3l-2-3zl2 2h1l1-4q3-3-5 2m4 8q-1 1 7 1l9-1-8-1zm-13 4-2 1c-2-1-10 7-9 8l-1 1-2 1-5 9 2-3q1-3 3-2l1 3q0 3-1 0h-2q2 4 5 3l-1-4v-4l-1-1h5q-2-2-1-5l1 1 2 2v-1l1-2h2v-2l1-1c-1 0 2-4 4-4v2l-1 1-1 1 2-1q4-2 1-4t-3 1m45 3q-1 6 3 8l5 2q3-1 0-1-3-2-1-3l4 5q-1 3 3 4v-1q-3-4-1-4 4 1 3 8l2 6q5 4 1-1t-1-5l1 2 3 3q4 1 1 2l1 2h1q1-2 2 1l3 2 2 1-2 1-2-1-2-1v2l4 1 2 2h2v5l4 2q3 0 0-1l-4-4c2 0 8 5 8 7h-1l-1 3 1 2h2l1 1v-1q-3-3 2-2l2 3 3 4 1 3 2 1q3-1 5 3 1 4 3 3 4-2 2 3 0 4 1 2t1 2v2q1-2 1 1c2 5 0 18-2 16l-1 1v2l-2 1v1l-1 1q-4 0-2 1v1q-3-2 0-5 3-2 1-2l-3 4-2 3-1 3q1 5-6 5-4-1-5 3l-2 2-1 2h1v1l2 1q2-1 0 0h-6q-3-1 1 2l1 1-4-1-2-2v-1c-2-2-17-3-17-1v2l2 1h6l-2 1h-3q2-1-1-1c-2 1-9-4-8-6q2-1 3 3l1 1q3 0-4-6-7-7-4-7l1 1 1 1-4-5v3l-2-1-1-1h-3l1-1h1l-1-2-2-3q-1-4-7-3v-1q3-3 0-5-3-3-1 0l-1 1v1q3 4-1 1-5-4-1-3v-1l-3-1v-2q2-3-1-1t-1-1q2-4-1-2l-2 1 1-1 1-1-1-1h-3l-1-1-4-2q-3-3-3-8h-1l-2 1v-1q3-3-1-2h-2l1-1 1-1-3-1q-2 1-2-1v-1l-2-1v-4l2 1h1l-3-1-1 1q0 3-2 1l-2-2a548 548 0 0 0 54 57h3v2q-1 2 8 8 9 5 18 2c5-1 14-9 13-10l1-1c1 1 14-12 18-18l3-12q0-9-1-6h-1l-1-3 1-1h1c0-2-8-12-9-11l-1-1-6-8-7-6 2 2q2 3-2 1l-2-3c1-2-7-11-8-10h-1l-23-25q1-2-3-2v-1q1-1-4-5l-5-5zm28 27 3 2 2 3q-1 1 0 0 2-1-1-4-6-5-4-1m-86 4-1 3-1-2-1-2v2q0 3-1 1-3-4-1 2 4 4 6 1h-1l-1-1q2-2 3 3l-1 2-2-1 4 5q7 8 7 4h-1l-3-1q-4-5 0-2h1v-2l-2-1h-2c2 0 1-8 0-8q-2 0-2-3l-1-3zm29 36 1 2h2v-2z"/>
</svg>