<svg xmlns="http://www.w3.org/2000/svg" aria-hidden="true" class="iconify iconify--fxemoji" viewBox="0 0 512 512">
  <path fill="#e2a042" d="M369 280c-11-16-33 6-56-18-14-13 14-75-4-93s-77-34-111 0c-33 34-13 66-71 63q-53-3-92 33c-49 49-42 136 16 194s145 65 194 16c24-24 35-57 33-91 3-43 16-44 43-43 41 1 59-46 48-61"/>
  <path fill="#a36119" d="M190 278 434 57a7 7 0 0 1 10 0l10 10a7 7 0 0 1 0 10L233 321a7 7 0 0 1-11 0l-32-33a7 7 0 0 1 0-10"/>
  <path fill="#ffe1ab" d="m176 379-9-4-32-32a13 13 0 1 1 19-18l32 31c5 5 5 14 0 19a13 13 0 0 1-10 4"/>
  <path fill="#2b3b47" d="M491 37h-3L253 272l-5-6L483 32a2 2 0 0 0-4-4L245 262l-6-4L474 23a2 2 0 0 0-3-3L235 256a38 38 0 0 0-50 50l-64 64-8-8q-9-7-17 2l-9 16a10 10 0 0 0 2 13l29 29a10 10 0 0 0 13 2l16-9q9-8 2-17l-8-8 65-65a38 38 0 0 0 49-49L491 40zM187 310l5 6-63 62-5-5zm-49 77-5-5 62-63 6 4z"/>
  <path fill="#e2a042" d="m415 56 54-53q7-6 14 0l24 24q6 7 0 14l-53 54q-7 6-15 0l-24-24q-6-8 0-15"/>
  <path fill="#a36119" d="M463 7q4 4-1 11-7 5-11 2-5-5 1-12 7-5 11-1m-26 17q-6 7-2 11 6 5 11-1 6-8 2-12-6-3-11 2m-16 16q-6 7-2 11 6 4 11-2 6-5 2-11-6-4-11 2m72 9q-6 7-2 11 6 4 11-1 6-7 2-12c-4-5-7-1-11 2m-16 16q-5 6-2 11 5 6 12-2 5-5 1-11-4-4-11 2m-16 16q-5 6-1 11 4 3 11-2c7-5 4-9 2-11q-5-4-12 2"/>
</svg>