<svg xmlns="http://www.w3.org/2000/svg" aria-hidden="true" class="iconify iconify--emojione" viewBox="0 0 64 64">
  <path fill="#de7f11" d="M26.7 56.4c.3-2.9 1.7-3.7 2.6-3.8 3.3-.5 2.6-1.6 1.9-2-3.8-1.8-.8-5.8-.1-6.7 2.3-3.1 6.3-1 6.3-1-.3-4.6 3.5-4.4 5.5-5.4 8.9-5 1.3-12.3-1.4-15-2.6-2.6-10-10.2-14.9-1.3-1 2-.8 5.8-5.5 5.5 0 0 2.2 4-1 6.3-.8.7-4.8 3.7-6.7-.1-.4-.7-1.4-1.4-1.9 1.9-.1.9-1 2.4-3.8 2.5C1 37.8-.8 47.3 8 56c9 9 18 6.9 18.7.4"/>
  <path fill="#333" d="m30.5 37.4-3.9-4L54 8l2 2zM58.4 7l3.2 3.3-.8.8-3.3-3.3z"/>
  <g fill="#333">
    <path d="m53.9 4 2.7 2.7-.8.8L53 4.8z"/>
    <path d="m53.4 6.2-.9-1.8 1-1 1.8.8z"/>
  </g>
  <g fill="#333">
    <path d="m56.2 8.5 3.3 3.3-.9.8-3.2-3.2z"/>
    <path d="m59 10.2.8 1.8-1 1-1.8-.8z"/>
  </g>
  <path fill="#333" d="M51 5.9 54.3 9l-.8.9-3.3-3.3z"/>
  <path fill="#b3660d" d="m60.6 7-3.5-3.6L59 2l3 3z"/>
  <path fill="#de7f11" d="m55.5 11.4 2.7-4 1.3-.3L62 3.3 60.7 2 57 4.5l-.2 1.3-4.1 2.7z"/>
  <path fill="#333" d="M24.2 35.3q.3-.7-.2-1.2c-2.6-2.7-7 6.3-8.8 4.5q-.5-.6-.2-1l.7-.1a1 1 0 0 0 0-1 1 1 0 0 0-1 0l-.2.8c-.2.3-.6 1.1.1 1.9 2.6 2.5 7.3-6.2 8.9-4.6q.1.2 0 .4l-.4.2a.7.7 0 1 0 1 1 1 1 0 0 0 .1-1m4.5 4.5q.7-.3 1.2.2c2.7 2.6-6.2 7-4.5 8.8q.7.5 1 .2l.1-.7a1 1 0 0 1 1 0 1 1 0 0 1 0 1l-.8.2c-.3.2-1.1.6-1.9-.1-2.5-2.6 6.2-7.3 4.6-8.9H29l-.2.4a.7.7 0 1 1-1-1 1 1 0 0 1 1 0M16 42.9s-1.2 2-1.5 2.8-.3 2.3-.7 2.9c-1 2-6.6 6.6-6.6 6.6l1.6 1.6s4.6-5.5 6.6-6.6c.7-.4 2.2-.4 2.9-.7L21 48z"/>
  <path fill="#333" d="m27 33.2.4.3-11 11.1-.4-.4zm3.4 3.4.4.3-11 11.1-.4-.4zm-1-1.2.3.4-11 11-.4-.3zm-1.2-1.1.4.4-11 11-.5-.3z"/>
  <path fill="#b3660d" d="M7 10.5 53.5 57l-1 1L5.8 11.7z"/>
  <path fill="#e2d8c7" d="M4.5 13 51 59.5l-1 1L3.5 14z"/>
  <path fill="#333" d="M5.5 16 2 12.7l5-2 2 2zM48 58.6l3.5 3.5 2-5-2-2z"/>
  <path fill="#333" d="m46.7 55.1 4.3 4.4-1 1-4.4-4.3z"/>
</svg>