<svg xmlns="http://www.w3.org/2000/svg" xml:space="preserve" viewBox="0 0 512 512">
  <path d="M475.3 297.4V223c0-51.6-42-93.5-93.6-93.5h-86.3a34 34 0 0 1-34.2-34.2A95.4 95.4 0 0 0 166 0h-33.7A95.4 95.4 0 0 0 37 95.3v201q-.3 1.1-.3 2.5v67.7c0 8 6.5 14.4 14.5 14.4H461c8 0 14.5-6.4 14.5-14.4v-67.7zM104.9 352H65.5v-38.9h39.4zm68.4 0h-39.5v-38.9h39.5zm68.3 0H202v-38.9h39.5zm68.3 0h-39.5v-38.9H310zm68.3 0h-39.5v-38.9h39.5zm-53.9-67.7H65.7v-26.7H342a14.4 14.4 0 0 0 0-28.9H65.7V95.3a66.6 66.6 0 0 1 66.5-66.5h33.7a66.6 66.6 0 0 1 66.5 66.5 63 63 0 0 0 63 63h86.3c35.7 0 64.8 29 64.8 64.7v61.4zm82.8 67.7v-38.9h39.4V352zM256 398.5a56.8 56.8 0 1 0 .1 113.6 56.8 56.8 0 0 0-.1-113.6m0 84.7a28 28 0 1 1 0-55.9 28 28 0 0 1 0 55.9"/>
  <path d="M399.4 240.4a14 14 0 0 0-2.1-5.2 15 15 0 0 0-9.2-6.1 14 14 0 0 0-10.8 2.1 14 14 0 0 0-5.3 6.5 14 14 0 0 0-1.2 5.5 14.4 14.4 0 0 0 11.7 14.2 14 14 0 0 0 13-4 15 15 0 0 0 3.9-13"/>
</svg>