<svg xmlns="http://www.w3.org/2000/svg" xml:space="preserve" viewBox="0 0 512 512">
  <path d="M431.3 0c-25.2 0-46.5 17-53 40h-292a15.2 15.2 0 0 0 0 30.4h292a55.3 55.3 0 1 0 53-70.4m0 80a25 25 0 0 1-24.4-20.6 15 15 0 0 0 0-8.5 24.8 24.8 0 1 1 24.4 29M55.6 52.2a15 15 0 0 0-11.9-12 15 15 0 0 0-15.6 6.5 15 15 0 0 0-2.5 8.5 15.2 15.2 0 0 0 25.9 10.7 15 15 0 0 0 4.1-13.7m88.5 98.2H27.3c-8.4 0-15.2 6.8-15.2 15.2v331.2c0 8.4 6.8 15.2 15.2 15.2H144c8.4 0 15.2-6.8 15.2-15.2V165.6c0-8.4-6.8-15.2-15.2-15.2m-58.4 34.4a24.8 24.8 0 1 1 0 49.6 24.8 24.8 0 0 1 0-49.6m43.2 296.8H42.5V243.8a55 55 0 0 0 86.4 0zm185.6-331.2H197.6c-8.4 0-15.2 6.8-15.2 15.2v255.3c0 8.4 6.8 15.2 15.2 15.2h116.8c8.4 0 15.2-6.8 15.2-15.2V165.6c0-8.4-6.8-15.2-15.2-15.2m-57.8 34.4a24.8 24.8 0 1 1 0 49.6 24.8 24.8 0 0 1 0-49.6m42.6 220.9h-86.4V243a55 55 0 0 0 86.4 1.6zm185.5-255.3H368c-8.4 0-15.2 6.8-15.2 15.2V345c0 8.3 6.8 15.1 15.2 15.1h116.8c8.4 0 15.2-6.8 15.2-15.1V165.6c0-8.4-6.8-15.2-15.2-15.2m-58.4 34.4a24.8 24.8 0 1 1 0 49.6 24.8 24.8 0 0 1 0-49.6m43.2 145h-86.4v-86a55 55 0 0 0 86.4 0z"/>
</svg>