<svg xmlns="http://www.w3.org/2000/svg" xml:space="preserve" viewBox="0 0 512 512">
  <path d="M497.7 217.3h-29.4V38.2c0-8-6.4-14.3-14.3-14.3H58c-8 0-14.3 6.4-14.3 14.3v179H14.3c-7.9 0-14.3 6.5-14.3 14.4v242.2c0 8 6.4 14.3 14.3 14.3h83.2c7.9 0 14.2-6.4 14.2-14.3v-74.5h288.6v74.5c0 8 6.3 14.3 14.2 14.3h83.2c7.9 0 14.3-6.4 14.3-14.3V231.6c0-8-6.4-14.3-14.3-14.3M72.2 52.5h367.6v164.8h-45.3V107.6c0-8-6.4-14.3-14.3-14.3h-78.8a60 60 0 0 0-45.4 21 60 60 0 0 0-45.4-21h-78.8c-7.9 0-14.3 6.4-14.3 14.3v109.7H72.2zm367.6 193.3v23.8h-50.5v-23.8zm-169.5-29.7V153c0-17.2 14-31.1 31-31.1H366V216zm90.2 29.7v23.8H310v-23.8zm-214.4-29.7V122h64.5c17.2 0 31.1 14 31.1 31v63.2zm55.9 29.7v23.8h-50.5v-23.8zm28.8 0h50.4v23.8h-50.4zm-158.6 0h50.5v23.8H72.2zm356.6 213.7V385c0-7.9-6.4-14.3-14.3-14.3h-317c-8 0-14.3 6.4-14.3 14.3v74.5H28.6v-113h274.1a14.3 14.3 0 0 0 0-28.6H28.6v-72h15v38c0 8 6.5 14.3 14.4 14.3h396c8 0 14.3-6.4 14.3-14.3v-38h15.1v213.6z"/>
  <path d="M359.6 329.4a14 14 0 0 0-11.2-11.2 14.5 14.5 0 0 0-16 8.5 14 14 0 0 0 3 15.6 14.4 14.4 0 0 0 22-2.2 15 15 0 0 0 2.2-10.7"/>
</svg>