<svg xmlns="http://www.w3.org/2000/svg" xml:space="preserve" viewBox="0 0 512 512">
  <path d="M396.7 262.9c-25.7 0-46.7 21-46.7 46.7v85l-23.8-66 19.1-66.3a31 31 0 0 0-7-29.8 31 31 0 0 0-29-9.6l-34.5 6.7v-107L290.3 35A29.8 29.8 0 0 0 261 0h-41.5A29.8 29.8 0 0 0 190 35l15.5 87.5v88.8l-42.3-25a34 34 0 0 0-39.3 3.2 34 34 0 0 0-10.4 38.1l36.8 101.2-77 131.6a34.2 34.2 0 0 0 29.5 51.6q4.6 0 9.3-1.3l130.6-36.5 87.8 33.7a34 34 0 0 0 36.3-7.5 34 34 0 0 0 10.3-25.2l.1-1.7V309.6a19.5 19.5 0 0 1 39 0v64.6a13.6 13.6 0 0 0 27.3 0v-64.6c0-25.8-21-46.7-46.8-46.7M217.4 28.2q.5-.9 2-1H261q1.5.1 2 1 .8.6.6 2.1l-13.7 77.4h-19.3l-13.7-77.4q-.1-1.5.6-2.1m30.2 106.7v189.8h-15V135zm100.1 346c-1 1-3.6 3-7.5 1.6l-92-35.3q-4.1-1.6-8.5-.4l-135 37.7a7 7 0 0 1-7.4-2.5 7 7 0 0 1-.6-7.9l29.2-49.8h110.8a13.6 13.6 0 0 0 0-27.2h-94.9l35.2-60c2-3.6 2.5-7.8 1-11.6l-38.9-107.2a7 7 0 0 1 2.1-7.8 7 7 0 0 1 4.5-1.7q1.7-.1 3.7 1l56 33.1v83.5h-1.3a13.6 13.6 0 0 0 0 27.2h72.1a13.6 13.6 0 0 0 0-27.2h-1.4v-69.1l39.7-7.7c2-.4 3.2.6 3.8 1.3s1.4 2 .9 3.9l-20.4 70.4q-1.2 4.3.3 8.4l50.3 139.9a7 7 0 0 1-1.7 7.4"/>
  <path d="M290.9 408a13 13 0 0 0-2-4.9 13.6 13.6 0 0 0-21-2 14 14 0 0 0-3 4.4 13 13 0 0 0-1 5.2 14 14 0 0 0 6 11.3 14 14 0 0 0 7.6 2.3 13.7 13.7 0 0 0 13.7-13.6z"/>
</svg>