<svg xmlns="http://www.w3.org/2000/svg" xml:space="preserve" viewBox="0 0 512 512">
  <path d="M378.5 308.4q6.6-19.9 6.7-41c0-53.4-33-94-86.7-108.2V63.8h5.9a14.2 14.2 0 0 0 0-28.4h-5.9V14.2c0-7.9-6.3-14.2-14.2-14.2h-56.6c-7.9 0-14.2 6.3-14.2 14.2v21.2h-5.9a14.2 14.2 0 0 0 0 28.4h5.9v95.4c-53.8 14.2-86.7 54.8-86.7 108.2q0 21.1 6.7 41a148 148 0 0 0-27 85.5c0 39.6 16 71.3 45.9 91.7C177.8 502.9 213.6 512 256 512s78.2-9.1 103.6-26.4c30-20.4 45.8-52.1 45.8-91.7 0-31-9.3-60.4-26.9-85.5m-136.7-280h28.4v7h-28.4zm28.4 35.4v198.9l-.7-.1-1.6-.3-1.7-.3-1.8-.3-1.5-.2-2.2-.2h-9.4l-2.2.2-1.5.2-1.8.3q-.9 0-1.7.3l-1.6.3-.7.1V63.8zm-33.7 231.4.9-.6a35 35 0 0 1 13.1-4.7h.4a37 37 0 0 1 10.2 0h.4a36 36 0 0 1 14 5.3 36.4 36.4 0 1 1-39 0M256 483.7c-45.2 0-121-11.7-121-89.8 0-27.3 8.8-53 25.6-74.5 3.1-4 3.9-9.4 2-14q-7.4-18.4-7.4-38c0-37.9 21.4-66.3 58.3-78.6V277A64.5 64.5 0 0 0 256 390.5a64.8 64.8 0 0 0 42.5-113.4v-88.3c36.9 12.3 58.3 40.7 58.3 78.6q0 19.6-7.4 38c-1.9 4.6-1.1 10 2 14a120 120 0 0 1 25.7 74.5c0 78.1-75.9 89.8-121.1 89.8"/>
  <path d="M287.8 411.3H181.7a14.2 14.2 0 0 0 0 28.3h106.1a14.2 14.2 0 0 0 0-28.3m56.4 11.4a14.2 14.2 0 0 0-23.9-7.2 14 14 0 0 0-3 4.6 14 14 0 0 0 1.2 13.2 14 14 0 0 0 6.4 5.3 16 16 0 0 0 5.4 1 15 15 0 0 0 5.4-1 14 14 0 0 0 8.5-10.3 14 14 0 0 0 0-5.6"/>
</svg>