<svg xmlns="http://www.w3.org/2000/svg" xml:space="preserve" viewBox="0 0 512 512">
  <path d="m98 370 23-23 57.6 57.6-23 23.1zm59-29.3 23-23 28 27.9-23.1 23z"/>
  <path d="m462.8 0-26.5 22.9L413.8.5l-23 23 20.7 20.7-6.3 5.5-24-24-23 23 22.2 22.4L355 93l12.5 12.5-120.1 120-1.6-1q-1.5-1-1.1-3l6-22.2A35 35 0 0 0 235 160a35 35 0 0 0-43 4.9c-19 19-27 34.5-34 48.1-6.4 12.3-11.9 23-25.4 36.5-9.7 9.7-22.3 14.5-37 20C78.9 275.9 60 283 44 299c-27.5 27.5-36.4 57.8-26.5 90 8.7 28.1 30.6 52.5 48.6 70.5 18.1 18.1 42.5 40 70.6 48.7q12.8 3.9 25.1 3.9 34.5 0 65-30.4c15.9-16 23-34.8 29.3-51.5 5.6-14.7 10.4-27.4 20-37 9.6-9.5 17.2-13 26-17.2 10-4.7 21.3-10 34.8-23.5q4.4-4.5 9.8-13.3a35.4 35.4 0 0 0-30.8-53.3l-23.6.2L420 158.4l13.1 13.1 65.1-83.3zM316.4 318.3q1.6 0 2.4 1.4c.8 1.3.2 2.3 0 2.6-3 5.1-4.6 6.8-4.9 7-9.4 9.5-17 13-25.6 17-10.1 4.8-21.5 10.2-35 23.7-14.7 14.6-21.2 31.9-27.6 48.6-5.6 14.9-11 29-22 40-24.6 24.6-44.5 22.3-57.2 18.3-21.6-6.6-43-26.3-57.2-40.5C40.2 387.2 34 355 67.2 321.9c11-11 25-16.3 40-22 16.6-6.3 33.9-12.8 48.5-27.4 17-17.1 24.3-31.1 31.3-44.6a140 140 0 0 1 28.1-40q.5-.6 1.4-.7.6 0 1.4.5c1.9 1.1 1.5 2.6 1.3 3.1l-6 22.3A35 35 0 0 0 228 252l17.3 11.1q.9.6 1.2 1.6l7 27.4a35 35 0 0 0 34.2 26.5h.5zm-38.8-63.5q-1.5-5-4.3-9l117.1-117.2 6.7 6.7zm152.6-132.5-27.4-27.4 46.8-40.4L461 82.8z"/>
</svg>