<svg xmlns="http://www.w3.org/2000/svg" xml:space="preserve" viewBox="0 0 512 512">
  <path d="M378.7 328.4c-.3-4.8-3-9-7.3-11.3a51 51 0 0 1-24.7-29.4l-1.9-6.2 9.2-5c4.3-2.2 7-6.6 7.3-11.5s1.6-48-13-72.6a96 96 0 0 0-55.7-44v-58c7-.7 12.5-6.6 12.5-13.8V13.8A14 14 0 0 0 291.3 0h-70.6C213.1 0 207 6.2 207 13.8v62.7c0 7.7 6.2 13.9 13.8 13.9h1.5v57.3c-25 6.7-45.2 22-58.6 44.7-14.6 24.7-13.1 67.7-12.9 72.6s3 9.3 7.3 11.6l9.2 4.8-2 6.3a50 50 0 0 1-24.6 29.4c-4.3 2.2-7 6.5-7.3 11.3-.2 2.6-3.3 62.6 35.8 99 19 17.6 45 28.9 73 31.7v39a13.8 13.8 0 1 0 27.7 0v-38.9a124 124 0 0 0 73.1-31.8c39-36.4 36-96.4 35.8-99M234.6 27.7h42.8v35h-42.8zm30.3 62.7v226.3h-15V90.4zM324.1 407c-35.7 33.2-100.5 33.2-136.2 0a70 70 0 0 1-12.1-15H267a13.8 13.8 0 1 0 0-27.7H164.7c-2.7-11-3.6-21-3.8-27.4a77 77 0 0 0 30.8-41.1l5.3-17.2c2-6.4-.9-13.2-6.7-16.3l-12-6.4c.1-14 2-37.3 9.1-49.5a68 68 0 0 1 34.8-29.8v153.8c0 7.6 6.2 13.8 13.8 13.8h42.8c7.6 0 13.8-6.2 13.8-13.8V177.8a68 68 0 0 1 32 28.7c7.2 12.2 9 35.5 9.2 49.5l-12 6.4c-6 3.1-8.7 10-6.8 16.3l5.3 17.2A77 77 0 0 0 351 337c-.5 14.6-4.1 48.8-27 70.1"/>
  <path d="M322.1 375.5a14 14 0 0 0-8.3-10 14 14 0 0 0-16.8 5 14 14 0 0 0-2 10.4 14 14 0 0 0 3.8 7.1 14 14 0 0 0 12.4 3.8 14 14 0 0 0 10.1-8.3 14 14 0 0 0 .8-8"/>
</svg>