<svg xmlns="http://www.w3.org/2000/svg" xml:space="preserve" viewBox="0 0 512 512">
  <path d="M482 0H30c-8 0-14.4 6.4-14.4 14.3v282.8c0 7.9 6.4 14.3 14.3 14.3h211.8v72.2l-107 103.8a14.3 14.3 0 1 0 20 20.6l87-84.5v74.2a14.3 14.3 0 0 0 28.6 0v-74.2l87 84.5a14 14 0 0 0 20.3-.3 14.3 14.3 0 0 0-.3-20.3l-107-103.8v-72.2h211.8c7.9 0 14.3-6.4 14.3-14.3V14.3C496.4 6.4 490 0 482 0M137 169.3h104.7v41h-61.8a14.3 14.3 0 0 0 0 28.6h61.8v43.9H110.5V102.4h100c17.2 0 31.2 14 31.2 31.2v7.1H137a14.3 14.3 0 0 0 0 28.6m264.5 113.5H270.3v-43.9H375a14.3 14.3 0 0 0 0-28.6H270.3v-41h61.8a14.3 14.3 0 0 0 0-28.6h-61.8v-7.1c0-17.2 14-31.2 31.1-31.2h100zm66.3 0H430V88c0-7.9-6.5-14.3-14.3-14.3H301.4a60 60 0 0 0-45.4 21 60 60 0 0 0-45.4-21H96.2c-7.9 0-14.3 6.4-14.3 14.3v194.7H44.2V28.6h423.6z"/>
  <path d="M389 152.3a15 15 0 0 0-6-9.1 14 14 0 0 0-16 0 14 14 0 0 0-5.2 6.4 15 15 0 0 0 0 11 14 14 0 0 0 13.2 8.7 14.3 14.3 0 0 0 14-17m-238 69.5a15 15 0 0 0-2.1-5.1 14 14 0 0 0-6.5-5.3 15 15 0 0 0-10.9 0 14 14 0 0 0-8.8 13.2 14 14 0 0 0 2.4 8 15 15 0 0 0 9 6 14 14 0 0 0 14.8-6 14 14 0 0 0 2.1-10.8"/>
</svg>