<svg xmlns="http://www.w3.org/2000/svg" xml:space="preserve" viewBox="0 0 512 512">
  <path d="M263.4 311.4A14 14 0 0 0 255 301a14 14 0 0 0-13.2 1.3 13 13 0 0 0-5.2 6.3 13 13 0 0 0-1 5.4 14 14 0 0 0 4 10 14 14 0 0 0 4.6 3 15 15 0 0 0 8.2.8 14 14 0 0 0 11-11 14 14 0 0 0 0-5.5"/>
  <path d="M498 125.4a14 14 0 0 0-14.2 14v7.2H330.4V130H343a14 14 0 0 0 0-28.2H221.2a14 14 0 0 0 0 28.2h14.4v16.6h-29q-1.7-.5-3.6-.5h-12c-70.4-4-167.5-74.3-168.5-75A14 14 0 0 0 0 82.3v235A14 14 0 0 0 22.3 329c.7-.6 49.4-35.4 102.2-57.5V358a86 86 0 0 0 85.8 85.8h144.3a86 86 0 0 0 85.8-85.8V232h43.4v5.2a14 14 0 0 0 28.2 0v-97.8a14 14 0 0 0-14-14.1M263.6 130h38.5v16.6h-38.5zM150.5 232.5q-8 2.2-16.5 5.2l-.5.2A534 534 0 0 0 28.2 291V109c33.5 21.6 98.5 59 154.6 64.7V184h-58.7a14 14 0 0 0 0 28.2h58.7v14l-3 .4q-1.2 0-2.3.3l-3.5.5-1.9.3-3.8.7-1.6.3-4 .9-1.5.3-4.4 1-1 .3-4.7 1.3zM412.3 358a57.7 57.7 0 0 1-57.7 57.6H210.3a57.7 57.7 0 0 1-57.6-57.6v-96.7a171 171 0 0 1 36-7.3h.2v86.8a38.6 38.6 0 0 0 38.6 38.6h109.9a38.6 38.6 0 0 0 38.6-38.6V239.2a14 14 0 0 0-14-14.1H211v-50.3h143.8l5 .2h.1q1.2 0 2.3.3h.3a58 58 0 0 1 33.8 17.3l.3.4 3.8 4.4.5.7a58 58 0 0 1 11.4 34.3zm-162.7-72a14 14 0 0 0 14.1-14v-18.7h38.5v98h-74.7c-5.7 0-10.4-4.7-10.4-10.5v-87.5h18.5V272a14 14 0 0 0 14 14m80.8 65.2v-97.9h17.5v87.5c0 5.8-4.7 10.4-10.5 10.4zm153-147.1h-47.8q0-.4-.3-.8l-.5-1.2-1-2.7-.5-1.2-1.3-2.7-.6-1.2-1.2-2.5-.9-1.5-1.2-2-1.4-2.3-.8-1.2q-3.5-5.2-7.8-10h65.2z"/>
  <path d="M95.7 195.2a14 14 0 0 0-3.9-7.2 14 14 0 0 0-19.9 0 14 14 0 1 0 23.8 7.2"/>
</svg>