<svg xmlns="http://www.w3.org/2000/svg" xml:space="preserve" viewBox="0 0 512 512">
  <path d="M406 238.5a15 15 0 0 0-21-1.2 96 96 0 0 0-32.2 71.8v14.8a14.9 14.9 0 0 0 29.7 0v-14.8c0-19 8.1-37 22.3-49.6a15 15 0 0 0 1.2-21"/>
  <path d="M484.6 145c-8.2 0-14.8 6.7-14.8 15v1h-20.9a148 148 0 0 0-137.5 93 45 45 0 0 0-13.1-14 44 44 0 0 0 0-73 44.1 44.1 0 0 0-27.5-80.5A95.2 95.2 0 0 0 81 95v19.5q0 1.2-.9 2-.8 1-2 1H27.3c-8.2 0-14.9 6.6-14.9 14.8v50.5a15 15 0 0 0 14.9 14.9h59.4a68 68 0 0 0 68.4-68.4V90q0-12 7.4-12c7.4 0 7.4 4 7.4 12v293a129.1 129.1 0 0 0 258.1 0v-26.4a21 21 0 0 1 20.8-20.8h20.8v6.9a14.9 14.9 0 0 0 29.8 0V159.9c0-8.2-6.7-14.8-14.9-14.8M300.8 311.3v79a14.9 14.9 0 0 1-29.7 0v-69.5h2.3a44 44 0 0 0 27.4-9.5M271 290.8v-28.4l2.3-.2a14.4 14.4 0 1 1-2.3 28.6m2.3-72.7-2.3-.2v-28.5l2.3-.2a14.4 14.4 0 0 1 0 28.9M271 116.4l2.3-.2A14.4 14.4 0 1 1 271 145zm-108.5-68c-21.9 0-37.1 17-37.1 41.6v39.4a38.4 38.4 0 0 1-38.7 38.7H42.3v-20.8h35.6a32.5 32.5 0 0 0 32.7-32.7V95a65.4 65.4 0 0 1 130.7 0v19.3h-41.6V90c0-24.5-15.2-41.6-37.1-41.6m37.1 140.4V144h41.6v44.7zm41.6 29.7v43.3h-41.6v-43.3zM469.8 306h-20.9a50.6 50.6 0 0 0-50.5 50.5V383a99.5 99.5 0 0 1-198.7 0v-91.4h41.6v98.7a44.6 44.6 0 0 0 89.2 0V309c0-65.3 53.1-118.5 118.5-118.5h20.7z"/>
</svg>