<svg xmlns="http://www.w3.org/2000/svg" xml:space="preserve" viewBox="0 0 512 512">
  <path d="M498.6 117.6c-1-4.6-4.2-8.4-8.6-10A47 47 0 0 1 459.3 63c0-12.6 4.9-24.5 13.8-33.5l.4-.3a14 14 0 0 0 0-19.7L468.1 4a14 14 0 0 0-19.6 0L331 121.7l-16.7 16.7a39.3 39.3 0 0 0-51.5-18.5l-4.1-4.2 10.6-10.7a13.9 13.9 0 0 0-19.6-19.6L17.2 318a13.9 13.9 0 0 0 19.6 19.6l10.6-10.7 4.2 4.2a39.3 39.3 0 0 0 18.5 51.5L31 421.7a14 14 0 0 0 0 19.6l66.7 66.6a14 14 0 0 0 19.6 0l300-300 77.6-77.6c3.4-3.3 4.8-8.1 3.8-12.7m-227.9 29.9a11.5 11.5 0 0 1 16.4 0 11.5 11.5 0 0 1 0 16.3 11.5 11.5 0 0 1-16.4 0 11.5 11.5 0 0 1 0-16.3M239 135.3l4.1 4.2a39 39 0 0 0 18.6 51.4l-11.4 11.4a39 39 0 0 0-51.4-18.6l-4.2-4.1zm-15.8 92.4a11.5 11.5 0 0 1-16.3 0 11.5 11.5 0 0 1 0-16.4 11.5 11.5 0 0 1 16.3 0 11.6 11.6 0 0 1 0 16.4m-48-28.5 4 4.1a39.3 39.3 0 0 0 18.6 51.5L186.5 266a39 39 0 0 0-51.5-18.5l-4.1-4.2zm-12.4 84.1a11.5 11.5 0 0 1-11.6 11.6 11.6 11.6 0 0 1-8.2-19.7 11.5 11.5 0 0 1 16.4 0q3.4 3.4 3.4 8.1m-95.7 24 44.2-44.3 4.1 4.2a39.3 39.3 0 0 0 18.6 51.4L122.7 330a39 39 0 0 0-51.5-18.5zm28.4 48A11.6 11.6 0 1 1 79.2 339a11.6 11.6 0 0 1 16.3 16.3m11.9 123.2-47-47L340.6 151l13.7 13.7-206.8 206.8a13.9 13.9 0 0 0 19.6 19.6L374 184.4l13.8 13.8zm300-300-47-47 71.2-71.3a76 76 0 0 0 30.6 63.5z"/>
  <path d="M141.6 408.1a14 14 0 0 0-10.9-10.9 14 14 0 0 0-14.2 6 14 14 0 0 0-2 10.3 15 15 0 0 0 2 5 14 14 0 0 0 8.8 6 14 14 0 0 0 16.3-16.4"/>
</svg>