<svg xmlns="http://www.w3.org/2000/svg" xml:space="preserve" viewBox="0 0 512 512">
  <path d="M498.3 30.2H13.7C6.1 30.2 0 36.3 0 43.9v126c0 7.7 6.1 13.8 13.7 13.8h68.7l153.4 141.8-105 97a13.7 13.7 0 1 0 18.7 20.2L256 344.2l106.5 98.5a13.7 13.7 0 0 0 19.4-.8 13.7 13.7 0 0 0-.8-19.4l-104.9-97 153.4-141.8h68.7c7.5 0 13.7-6.1 13.7-13.7V44c0-7.7-6.1-13.8-13.7-13.8M373.8 57.6h40.7v33h-40.7zm-68.2 0h40.8v33h-40.8zm-70 0h42.5v33h-42.4zm-68.2 0h40.8v33h-40.8zm-70 0H140v33H97.5zM256 306.8l-133.1-123H389zM27.5 156.3V57.6H70V105c0 7.5 6.2 13.7 13.8 13.7h344.4c7.6 0 13.8-6.2 13.8-13.7V57.6h42.5v98.7zm84 302.1-.2-.2A13.7 13.7 0 0 0 92 477.6l.2.2a13.7 13.7 0 0 0 19.4 0c5.4-5.3 5.4-14 0-19.4m308.4-.3c-5.3-5.3-14-5.3-19.3 0l-.3.3a13.7 13.7 0 0 0 19.5 19.4l.2-.3c5.4-5.3 5.4-14 0-19.4"/>
</svg>