<svg xmlns="http://www.w3.org/2000/svg" xml:space="preserve" viewBox="0 0 512 512">
  <path d="M497.6 54H14.4C6.4 54 0 60.6 0 68.5v375.2c0 7.9 6.4 14.3 14.4 14.3h483.2c8 0 14.4-6.4 14.4-14.3V68.4c0-7.9-6.4-14.3-14.4-14.3m-14.3 375.2H28.7V82.8h294.9v229a14.4 14.4 0 0 0 28.7 0v-229h131z"/>
  <path d="M147.8 109.7H66.4c-8 0-14.4 6.4-14.4 14.3v57.5c0 8 6.5 14.4 14.4 14.4h81.4c8 0 14.4-6.4 14.4-14.4V124c0-8-6.4-14.3-14.4-14.3m-14.3 57.5H80.8v-28.8h52.7zm150.9-57.5h-81.5c-7.9 0-14.3 6.4-14.3 14.3v57.5c0 8 6.4 14.4 14.3 14.4h81.5c8 0 14.4-6.4 14.4-14.4V124c0-8-6.5-14.3-14.4-14.3M270 167.2h-52.7v-28.8H270zM147.8 316H66.4c-8 0-14.4 6.5-14.4 14.5V388c0 8 6.5 14.3 14.4 14.3h81.4c8 0 14.4-6.4 14.4-14.3v-57.5c0-8-6.4-14.4-14.4-14.4m-14.3 57.6H80.8v-28.8h52.7zM284.4 316h-81.5c-7.9 0-14.3 6.5-14.3 14.5V388c0 8 6.4 14.3 14.3 14.3h81.5c8 0 14.4-6.4 14.4-14.3v-57.5c0-8-6.5-14.4-14.4-14.4M270 373.7h-52.7v-28.8H270zM147.8 212.9H66.4c-8 0-14.4 6.4-14.4 14.3v57.6c0 7.9 6.5 14.3 14.4 14.3h81.4c8 0 14.4-6.4 14.4-14.3v-57.6c0-7.9-6.4-14.3-14.4-14.3m-14.3 57.5H80.8v-28.8h52.7zm150.9-57.5h-81.5c-7.9 0-14.3 6.4-14.3 14.3v57.6c0 7.9 6.4 14.3 14.3 14.3h81.5c8 0 14.4-6.4 14.4-14.3v-57.6c0-7.9-6.5-14.3-14.4-14.3M270 270.4h-52.7v-28.8H270zM416.1 109a43.9 43.9 0 1 0 .1 87.7 43.9 43.9 0 0 0 0-87.8m0 58.9a15.1 15.1 0 1 1 0-30.2 15.1 15.1 0 0 1 0 30.2m-.1 147.6a43.9 43.9 0 1 0 .1 87.8 43.9 43.9 0 0 0 0-87.8m0 59a15.1 15.1 0 1 1 0-30.3 15.1 15.1 0 0 1 0 30.2m-.1-162.1a43.9 43.9 0 1 0 .1 87.7 43.9 43.9 0 0 0 0-87.7m0 58.9a15.1 15.1 0 1 1 0-30.2 15.1 15.1 0 0 1 0 30.2M348 344.7a14 14 0 0 0-4.6-3A15 15 0 0 0 330 343q-1.1.7-2.1 1.7a14.5 14.5 0 0 0 0 20.4 15 15 0 0 0 10.1 4.2 14 14 0 0 0 10.2-4.2 14.5 14.5 0 0 0 0-20.4"/>
</svg>