<svg xmlns="http://www.w3.org/2000/svg" xml:space="preserve" viewBox="0 0 512 512">
  <path d="M497.7 55.3H14.3C6.4 55.3 0 61.7 0 69.7v372.6c0 8 6.4 14.4 14.3 14.4h483.4c7.9 0 14.3-6.4 14.3-14.4V69.7c0-8-6.4-14.4-14.3-14.4M110.7 428h-82V317.5h26.6V365a14.3 14.3 0 1 0 28.7 0v-47.4h26.6zm0-139.1H84V190a14.3 14.3 0 1 0-28.7 0v98.8H28.7V84h82zM221.2 428h-81.4V198.7h26.4v123.2a14.3 14.3 0 1 0 28.6 0V198.7h26.4zm0-258h-26.4v-23a14.3 14.3 0 1 0-28.6 0v23h-26.4V84h81.4zM330 428h-79.6V277.5H277v87.4a14.3 14.3 0 1 0 28.7 0v-87.4H330zm0-179.2h-24.5v-58.7a14.3 14.3 0 1 0-28.7 0v58.7h-26.4V84H330zM483.3 428H361.2V193.7a67.4 67.4 0 0 0 122.1-5.3zm-101-265.2a38.7 38.7 0 1 1 77.5.1 38.7 38.7 0 0 1-77.5 0m101-25.6a67.5 67.5 0 0 0-122.1-5.2V84h122.1z"/>
  <path d="M83.7 144.3a14 14 0 0 0-4-7.4 15 15 0 0 0-7.2-3.9 14 14 0 0 0-13 4 14 14 0 0 0-3 4.6 14 14 0 0 0 0 11 14 14 0 0 0 10.4 8.5 14 14 0 0 0 16-8.5 14 14 0 0 0 1-5.5q0-1.5-.2-2.8m221.6 0a15 15 0 0 0-2.2-5.2 14 14 0 0 0-6.4-5.3l-2.7-.8a14.5 14.5 0 0 0-16 8.6 15 15 0 0 0-1.1 5.5 14 14 0 0 0 4.2 10.1 14.5 14.5 0 0 0 20.3 0 14 14 0 0 0 3-4.6 15 15 0 0 0 .9-8.3M194.7 362.1a15 15 0 0 0-6.2-9 15 15 0 0 0-10.7-2.2 15 15 0 0 0-11.3 11.2 14 14 0 0 0 6.1 14.7 14 14 0 0 0 10.8 2.2 15 15 0 0 0 5.1-2.2 15 15 0 0 0 6.2-9 14 14 0 0 0 0-5.7m256.2-121.7h-59.7c-8 0-14.4 6.4-14.4 14.4V389c0 7.9 6.5 14.3 14.4 14.3h59.7c8 0 14.3-6.4 14.3-14.3V254.8c0-8-6.4-14.4-14.3-14.4m-14.3 134.4h-31V269h31z"/>
</svg>