<svg xmlns="http://www.w3.org/2000/svg" xml:space="preserve" viewBox="0 0 512 512">
  <path d="m320.9 194.6-5.3-150A46 46 0 0 0 269.4 0h-26.8a46 46 0 0 0-46.2 44.6l-5.3 150C138 228.6 100 301.2 100 370.8c0 85.8 61.2 141.2 156 141.2s156-55.4 156-141.2c0-69.6-38-142.2-91.1-176.2m-97-149a18.7 18.7 0 0 1 18.7-18.1h26.8c10.1 0 18.4 8 18.8 18.1l8.4 238.5-2.2-1.3h-.2a77 77 0 0 0-24.2-9h-.3V107.2a13.7 13.7 0 1 0-27.4 0v166.6h-.3a77 77 0 0 0-24.2 9h-.2l-2.2 1.3zM212.6 325l1.1-1.7.5-.9 1.7-2.2.6-.8 3.6-4.1.3-.4 2.2-2 .5-.4 2-1.7.3-.2q7.6-5.9 16.8-8.5v55.1a13.7 13.7 0 1 0 27.4 0v-55q9.2 2.5 16.8 8.4l.3.2q1 .7 2 1.7l.5.4 2.2 2 .3.4 3.6 4 .6.9 1.7 2.2.5.9a49 49 0 0 1 8 27 50.2 50.2 0 1 1-93.5-25.3M256 484.5c-62.1 0-128.6-29.8-128.6-113.7 0-52.5 25.7-108.5 62.5-141l-3 85.2a77.7 77.7 0 1 0 138.3 0l-3-85.1c36.7 32.4 62.4 88.4 62.4 140.9 0 83.9-66.5 113.7-128.6 113.7"/>
  <path d="M269.5 63.3a13 13 0 0 0-2-5 13 13 0 0 0-6.3-5 14 14 0 0 0-10.4 0 14 14 0 0 0-8.3 10 13.6 13.6 0 0 0 8.3 15.4 14 14 0 0 0 10.4 0 14 14 0 0 0 8.3-10 14 14 0 0 0 0-5.4"/>
</svg>