<svg xmlns="http://www.w3.org/2000/svg" xml:space="preserve" viewBox="0 0 512 512">
  <path d="M477.4 61.9H466l-13.5-28.4A59 59 0 0 0 399.8 0H112.2a59 59 0 0 0-52.9 33.5L46 61.9H34.6c-8 0-14.6 6.6-14.6 14.7v92.3c0 8.1 6.5 14.7 14.6 14.7H42l26.2 246.7h-8.6c-8.1 0-14.7 6.5-14.7 14.6v52.4c0 8.1 6.6 14.7 14.7 14.7h392.8c8.1 0 14.7-6.6 14.7-14.7V445c0-8-6.6-14.6-14.7-14.6h-8.6L470 183.6h7.4c8 0 14.6-6.6 14.6-14.7V76.6c0-8.1-6.5-14.7-14.6-14.7M85.8 46a29 29 0 0 1 26.4-16.7h287.6c11.2 0 21.5 6.6 26.4 16.7l7.5 15.9H78.3zm352 436.7H74.2v-23.1h363.6zm-23.5-52.4H97.7L71.5 183.6h93.8v48.1a14.7 14.7 0 0 0 29.3 0v-48.1h122.8v48.1a14.7 14.7 0 0 0 29.3 0v-48.1h93.8zm48.4-276H49.3v-63h413.4z"/>
  <path d="M194.3 272.8a15 15 0 0 0-11.5-11.5 15 15 0 0 0-15 6.3 14.7 14.7 0 1 0 26.5 5.2m12.4 41.2h-53.5c-8.1 0-14.7 6.5-14.7 14.6v55.2c0 8.1 6.6 14.7 14.7 14.7h53.5c8.1 0 14.7-6.6 14.7-14.7v-55.2c0-8.1-6.6-14.7-14.7-14.7M192 369.1h-24v-26h24zm154.4-96.3a15 15 0 0 0-4-7.5 15 15 0 0 0-20.7 0 14 14 0 0 0-3.2 4.8 15 15 0 0 0-1.1 5.6 14.7 14.7 0 0 0 14.7 14.6c3.8 0 7.6-1.5 10.3-4.2a15 15 0 0 0 4-13.3m12.4 41.2h-53.5c-8.1 0-14.7 6.5-14.7 14.6v55.2c0 8.1 6.6 14.7 14.7 14.7h53.5c8.1 0 14.7-6.6 14.7-14.7v-55.2c0-8.1-6.6-14.7-14.7-14.7m-14.7 55.2H320v-26h24z"/>
</svg>