<svg xmlns="http://www.w3.org/2000/svg" xml:space="preserve" viewBox="0 0 512 512">
  <path d="M327.8 322a14.6 14.6 0 0 0-17-11.5 15 15 0 0 0-10.6 8.7 15 15 0 0 0 1.3 13.6 14 14 0 0 0 6.5 5.4 15 15 0 0 0 15.9-3.1 15 15 0 0 0 4-13.2"/>
  <path d="M480.6 208 390 117.4v-103c0-8-6.5-14.5-14.5-14.5h-50.9c-8 0-14.5 6.5-14.5 14.5V59l-79.5 79.4-.5.5c-14.6 14.6-35.8 26.5-58.3 36h-.2c-52 22-111 31.5-111.8 31.6a14.5 14.5 0 0 0-8.1 24.7l65.8 65.8A88.5 88.5 0 0 0 242 421.5l65.8 65.8a14.5 14.5 0 0 0 24.6-8c.2-1.2 20.3-123.1 67.7-170.4l.4-.6 80-79.9a14.5 14.5 0 0 0 0-20.6M339.2 29H361v108.8a11 11 0 0 1-21.8 0zM143.8 395.5a59.4 59.4 0 0 1-5.5-77.6l41.6 41.5 41.5 41.6a59.4 59.4 0 0 1-77.6-5.5m165.4 52.1L252.7 391 148.2 286.5l-56.5-56.4a551 551 0 0 0 82.1-24.5l97 97a14.5 14.5 0 0 0 20.6 0 14.5 14.5 0 0 0 0-20.6l-89.1-89a213 213 0 0 0 37.6-23.7l130 130c-33.2 41.5-52.2 110.2-60.7 148.2M390 278.1 261 149.3l49-49v37.5a40 40 0 0 0 76.2 17l63.4 63.4zM107.1 432a14.5 14.5 0 0 0-20.5 0l-14.4 14.4A14.5 14.5 0 0 0 92.7 467l14.4-14.4a14.5 14.5 0 0 0 0-20.6m86.1 30.6c-8 0-14.5 6.5-14.5 14.5v20.4a14.5 14.5 0 0 0 29 0V477c0-8-6.4-14.5-14.5-14.5M62 331.4H41.8a14.5 14.5 0 0 0 0 29h20.4a14.5 14.5 0 1 0 0-29"/>
</svg>