<svg xmlns="http://www.w3.org/2000/svg" xml:space="preserve" viewBox="0 0 512 512">
  <path d="M256 237.1a71 71 0 1 0 .2 142 71 71 0 0 0-.2-142m0 116.8a46 46 0 1 1 .1-91.8 46 46 0 0 1-.1 91.8"/>
  <path d="M474 150.8a325 325 0 0 0-58.2-6.3v-9.7a12.5 12.5 0 0 0-25 0v9.7c-22 .6-42.2 2.8-58.2 6.3-12.3 2.7-27.6 7.1-34.5 16.3q-14.3-4.2-29.6-5.6v-20.4H347c6.9 0 12.5-5.6 12.5-12.5V54.3c0-7-5.6-12.5-12.5-12.5H165c-6.9 0-12.5 5.6-12.5 12.5v74.3c0 6.9 5.6 12.5 12.5 12.5h78.4v20.4q-15.3 1.4-29.6 5.6c-6.9-9.2-22.2-13.6-34.5-16.3a325 325 0 0 0-58.1-6.3v-9.7a12.5 12.5 0 0 0-25.1 0v9.7c-21.9.6-42.2 2.8-58.2 6.3-16.3 3.5-38 10.2-38 27 0 17 21.7 23.6 38 27.2a325 325 0 0 0 58.2 6.2v173l-45.3 66.4a12.5 12.5 0 1 0 20.8 14.1l37-54.4 37.1 54.4a12.5 12.5 0 1 0 20.7-14l-45.2-66.5V367a147.2 147.2 0 0 0 269.4 0v17l-45.2 66.5a12.5 12.5 0 0 0 20.7 14.1l37-54.4 37.1 54.4a12.5 12.5 0 1 0 20.8-14l-45.3-66.5v-173A325 325 0 0 0 474 205c16.3-3.6 38-10.3 38-27.1s-21.7-23.6-38-27.1M96.2 186.2a251 251 0 0 1-63-8.3 251 251 0 0 1 63-8.3zm81.5-70.2v-12h79.9a12.5 12.5 0 0 0 0-25h-80V66.7h156.7V116zm-56.4 53.6a251 251 0 0 1 63 8.3 251 251 0 0 1-63 8.3zm0 41.6a409 409 0 0 0 25.4-1.4 148 148 0 0 0-25.4 39.2zm134.7 219a122.2 122.2 0 0 1 0-244 121.9 121.9 0 1 1 0 243.9M390.7 249q-9.6-21.8-25.4-39.2 12.3 1 25.4 1.4zm0-62.8a251 251 0 0 1-63-8.3 251 251 0 0 1 63-8.3zm25.1 0v-16.6a251 251 0 0 1 63 8.3 251 251 0 0 1-63 8.3"/>
  <path d="M307.5 89a13 13 0 0 0-1.9-4.5 13 13 0 0 0-8-5.3 12 12 0 0 0-12.8 5.3 13 13 0 0 0-1.9 9.4 13 13 0 0 0 7.5 9.1 12 12 0 0 0 4.8 1 13 13 0 0 0 10.4-5.6 13 13 0 0 0 1.9-9.4"/>
</svg>